<svg fill="#000000" xmlns="http://www.w3.org/2000/svg"  viewBox="0 0 100 100" width="100px" height="100px"><path fill="none" stroke="#000000" stroke-linecap="round" stroke-miterlimit="10" d="M79.484 57.186c-.4 1.734-.957 3.441-1.671 5.098-.182.422-.374.84-.576 1.255M78.411 39.02c1.488 3.808 2.186 7.86 2.085 11.898-.017.659-.054 1.318-.113 1.975M27.735 29.228c5.171-5.538 11.932-8.707 18.926-9.462M29.278 72.284c-10.538-9.839-12.565-25.37-5.752-37.341M75.203 67.306c-.852 1.241-1.806 2.434-2.865 3.568-2.642 2.83-5.7 5.041-8.991 6.628"/><path fill="none" stroke="#000000" stroke-miterlimit="10" d="M44.5,84V59.5h-9v-9h9l0-8.971c-0.195-8.049,5.897-15.88,20-11.538L64.471,38.5l-4.901-0.032c-3.77,0-5.069,1.246-5.069,3.962v8.07h10.776l-1.894,9H54.5V84"/><path fill="none" stroke="#000000" stroke-miterlimit="10" stroke-width="2" d="M50 15A35 35 0 1 0 50 85A35 35 0 1 0 50 15Z"/></svg>