<?xml version="1.0" encoding="UTF-8" standalone="no"?><svg viewBox="0 0 64 64" xmlns="http://www.w3.org/2000/svg" xmlns:xlink="http://www.w3.org/1999/xlink"><style>:root>svg{display:none}:root>svg:target{display:block}</style><svg viewBox="-11 0 64 64" id="devil-horns-svgrepo-com" xmlns="http://www.w3.org/2000/svg"><path d="M40 44c0 9.925-8.075 18-18 18h-2c-9.925 0-18-8.075-18-18v-4c0-2.2 1.8-4 4-4h10c.347 0 .679.059 1 .142V37.5a.5.5 0 01-.5.5h-4a.5.5 0 000 1H17a1 1 0 001-1v-1.443a3.978 3.978 0 011.982 3.261c.099 2.29-1.711 4.182-3.979 4.182h-5a1 1 0 000 2h4.748c2.134 0 4.086-1.072 5.222-2.721C22.119 45.006 24.106 46 26 46c3.308 0 6-2.692 6-6V12c0-2.206 1.794-4 4-4s4 1.794 4 4v32zM2 6c0-2.206 1.794-4 4-4s4 1.794 4 4v28H6a5.963 5.963 0 00-4 1.547V6zm10 17c0-2.2 1.8-4 4-4s4 1.8 4 4v12.537A5.973 5.973 0 0016 34h-4V23zm10 0c0-2.2 1.8-4 4-4s4 1.8 4 4v17a4 4 0 01-4 4c-1.976 0-4-1.601-4-4V23zM36 6a6 6 0 00-6 6v6.547A5.963 5.963 0 0026 17a6.005 6.005 0 00-5 2.698A6.005 6.005 0 0016 17a5.963 5.963 0 00-4 1.547V6a6 6 0 00-6-6C2.7 0 0 2.7 0 6v38c0 11 9 20 20 20h2c11 0 20-9 20-20V12c0-3.3-2.7-6-6-6zm-8.5 32a.5.5 0 01.5.5V40a2 2 0 01-2 2 .5.5 0 000 1 3 3 0 003-3v-2a1 1 0 00-1-1h-4.5a.5.5 0 000 1h4zM8 27.5a.5.5 0 00-.5-.5h-3a.5.5 0 000 1h3a.5.5 0 00.5-.5zm10 4a.5.5 0 00-.5-.5h-3a.5.5 0 000 1h3a.5.5 0 00.5-.5zm6.5.5h3a.5.5 0 000-1h-3a.5.5 0 000 1zm13 1h-3a.5.5 0 000 1h3a.5.5 0 000-1zm0-13h-3a.5.5 0 000 1h3a.5.5 0 000-1zm-33-5h3a.5.5 0 000-1h-3a.5.5 0 000 1z" fill="#000" fill-rule="evenodd"/></svg><svg viewBox="0 0 64 64" id="piano-svgrepo-com" xmlns="http://www.w3.org/2000/svg"><path d="M62 59c0 1.654-1.346 3-3 3h-5V38h2c.55 0 1-.45 1-1V2h2c1.654 0 3 1.346 3 3v54zM2 59V5c0-1.654 1.346-3 3-3h6v35c0 .55.45 1 1 1h2v24H5c-1.654 0-3-1.346-3-3zM24 2v35c0 .55.45 1 1 1h2v24H15V38h2c.55 0 1-.45 1-1V2h6zm16 0v60H28V38h2c.55 0 1-.45 1-1V2h9zm11 36h2v24H41V2h9v35c0 .55.45 1 1 1zm8-38H5a5 5 0 00-5 5v54a5 5 0 005 5h54a5 5 0 005-5V5a5 5 0 00-5-5z" fill="#000" fill-rule="evenodd"/></svg><svg viewBox="0 0 64 64" id="sampler-svgrepo-com" xmlns="http://www.w3.org/2000/svg"><path d="M62 59c0 1.654-1.346 3-3 3H5c-1.654 0-3-1.346-3-3V5c0-1.654 1.346-3 3-3h54c1.654 0 3 1.346 3 3v54zM59 0H5a5 5 0 00-5 5v54a5 5 0 005 5h54a5 5 0 005-5V5a5 5 0 00-5-5zm-1 48h-1v-9a1 1 0 00-2 0v9h-1c-.55 0-1 .45-1 1s.45 1 1 1h1v9a1 1 0 002 0v-9h1c.55 0 1-.45 1-1s-.45-1-1-1zm0-24h-1v-9a1 1 0 00-2 0v9h-1c-.55 0-1 .45-1 1s.45 1 1 1h1v9a1 1 0 002 0v-9h1c.55 0 1-.45 1-1s-.45-1-1-1zm-7-14h-2c-.55 0-1 .45-1 1s.45 1 1 1h2c.55 0 1-.45 1-1s-.45-1-1-1zm4 2h2c.55 0 1-.45 1-1s-.45-1-1-1h-2c-.55 0-1 .45-1 1s.45 1 1 1zm-4-6h-2c-.55 0-1 .45-1 1s.45 1 1 1h2c.55 0 1-.45 1-1s-.45-1-1-1zm4 2h2c.55 0 1-.45 1-1s-.45-1-1-1h-2c-.55 0-1 .45-1 1s.45 1 1 1zM18 7c0-.55-.45-1-1-1h-2c-.55 0-1 .45-1 1s.45 1 1 1h2c.55 0 1-.45 1-1zm-7 1a1 1 0 100-2 1 1 0 000 2zM7 8a1 1 0 100-2 1 1 0 000 2zm42 50a1 1 0 01-1 1h-6a1 1 0 01-1-1v-6a1 1 0 011-1h6a1 1 0 011 1v6zm-1-8h-6c-1.103 0-2 .897-2 2v6c0 1.103.897 2 2 2h6c1.103 0 2-.897 2-2v-6c0-1.103-.897-2-2-2zm-11 8a1 1 0 01-1 1h-6a1 1 0 01-1-1v-6a1 1 0 011-1h6a1 1 0 011 1v6zm-1-8h-6c-1.103 0-2 .897-2 2v6c0 1.103.897 2 2 2h6c1.103 0 2-.897 2-2v-6c0-1.103-.897-2-2-2zm-11 8a1 1 0 01-1 1h-6a1 1 0 01-1-1v-6a1 1 0 011-1h6a1 1 0 011 1v6zm-1-8h-6c-1.103 0-2 .897-2 2v6c0 1.103.897 2 2 2h6c1.103 0 2-.897 2-2v-6c0-1.103-.897-2-2-2zm-11 8a1 1 0 01-1 1H6a1 1 0 01-1-1v-6a1 1 0 011-1h6a1 1 0 011 1v6zm-1-8H6c-1.103 0-2 .897-2 2v6c0 1.103.897 2 2 2h6c1.103 0 2-.897 2-2v-6c0-1.103-.897-2-2-2zm37-4a1 1 0 01-1 1h-6a1 1 0 01-1-1v-6a1 1 0 011-1h6a1 1 0 011 1v6zm-1-8h-6c-1.103 0-2 .897-2 2v6c0 1.103.897 2 2 2h6c1.103 0 2-.897 2-2v-6c0-1.103-.897-2-2-2zm-11 8a1 1 0 01-1 1h-6a1 1 0 01-1-1v-6a1 1 0 011-1h6a1 1 0 011 1v6zm-1-8h-6c-1.103 0-2 .897-2 2v6c0 1.103.897 2 2 2h6c1.103 0 2-.897 2-2v-6c0-1.103-.897-2-2-2zm-11 8a1 1 0 01-1 1h-6a1 1 0 01-1-1v-6a1 1 0 011-1h6a1 1 0 011 1v6zm-1-8h-6c-1.103 0-2 .897-2 2v6c0 1.103.897 2 2 2h6c1.103 0 2-.897 2-2v-6c0-1.103-.897-2-2-2zm-11 8a1 1 0 01-1 1H6a1 1 0 01-1-1v-6a1 1 0 011-1h6a1 1 0 011 1v6zm-1-8H6c-1.103 0-2 .897-2 2v6c0 1.103.897 2 2 2h6c1.103 0 2-.897 2-2v-6c0-1.103-.897-2-2-2zm37-4a1 1 0 01-1 1h-6a1 1 0 01-1-1v-6a1 1 0 011-1h6a1 1 0 011 1v6zm-1-8h-6c-1.103 0-2 .897-2 2v6c0 1.103.897 2 2 2h6c1.103 0 2-.897 2-2v-6c0-1.103-.897-2-2-2zm-11 8a1 1 0 01-1 1h-6a1 1 0 01-1-1v-6a1 1 0 011-1h6a1 1 0 011 1v6zm-1-8h-6c-1.103 0-2 .897-2 2v6c0 1.103.897 2 2 2h6c1.103 0 2-.897 2-2v-6c0-1.103-.897-2-2-2zm-11 8a1 1 0 01-1 1h-6a1 1 0 01-1-1v-6a1 1 0 011-1h6a1 1 0 011 1v6zm-1-8h-6c-1.103 0-2 .897-2 2v6c0 1.103.897 2 2 2h6c1.103 0 2-.897 2-2v-6c0-1.103-.897-2-2-2zm-11 8a1 1 0 01-1 1H6a1 1 0 01-1-1v-6a1 1 0 011-1h6a1 1 0 011 1v6zm-1-8H6c-1.103 0-2 .897-2 2v6c0 1.103.897 2 2 2h6c1.103 0 2-.897 2-2v-6c0-1.103-.897-2-2-2zm37-4a1 1 0 01-1 1h-6a1 1 0 01-1-1v-6a1 1 0 011-1h6a1 1 0 011 1v6zm-1-8h-6c-1.103 0-2 .897-2 2v6c0 1.103.897 2 2 2h6c1.103 0 2-.897 2-2v-6c0-1.103-.897-2-2-2zm-11 8a1 1 0 01-1 1h-6a1 1 0 01-1-1v-6a1 1 0 011-1h6a1 1 0 011 1v6zm-1-8h-6c-1.103 0-2 .897-2 2v6c0 1.103.897 2 2 2h6c1.103 0 2-.897 2-2v-6c0-1.103-.897-2-2-2zm-11 8a1 1 0 01-1 1h-6a1 1 0 01-1-1v-6a1 1 0 011-1h6a1 1 0 011 1v6zm-1-8h-6c-1.103 0-2 .897-2 2v6c0 1.103.897 2 2 2h6c1.103 0 2-.897 2-2v-6c0-1.103-.897-2-2-2zm-11 8a1 1 0 01-1 1H6a1 1 0 01-1-1v-6a1 1 0 011-1h6a1 1 0 011 1v6zm-1-8H6c-1.103 0-2 .897-2 2v6c0 1.103.897 2 2 2h6c1.103 0 2-.897 2-2v-6c0-1.103-.897-2-2-2z" fill="#000" fill-rule="evenodd"/></svg></svg>